<?xml version="1.0" ?><!DOCTYPE svg  PUBLIC '-//W3C//DTD SVG 1.1//EN'  'http://www.w3.org/Graphics/SVG/1.1/DTD/svg11.dtd'><svg height="46px" id="Layer_1" style="enable-background:new 0 0 42 46;" version="1.1" viewBox="0 0 42 46" width="42px" xml:space="preserve" xmlns="http://www.w3.org/2000/svg" xmlns:xlink="http://www.w3.org/1999/xlink"><path style="fill:#e42626;" d="M24.8,46c-1.7,0-3.1-1.1-3.6-2.6c-0.5,1.5-1.9,2.6-3.6,2.6c-2,0-3.7-1.6-3.7-3.7v-4.7h-1c-1.7,0-3.2-1-4-2.5  c0,0,0-0.1,0-0.1l-0.3-0.7c0,0,0-0.1,0-0.1c-0.1-0.4-0.1-0.8-0.1-1.1V17.3c0-0.1,0-0.2,0-0.4c0-0.1,0-0.1,0-0.2c0-0.1,0-0.3,0-0.4  l0-0.2c0-0.5,0.5-0.9,1-1c0.5,0,0.8,0.3,0.9,0.7l22,0c0,0,0.1,0,0.1,0c0.2,0,0.3,0.1,0.5,0.2c0.1,0.1,0.2,0.1,0.2,0.2  c0,0,0.1,0.1,0.1,0.1l0.1,0.1c0.1,0.2,0.2,0.4,0.2,0.7c0,0.2-0.1,0.4-0.2,0.6V35c0,0.3-0.1,0.6-0.4,0.8c-0.6,1.2-1.8,1.9-3.2,1.9  h-1.4v4.7C28.5,44.4,26.8,46,24.8,46z M20.3,35.7H22c0.6,0,1,0.4,1,1v5.7c0,0.9,0.8,1.7,1.7,1.7c0.9,0,1.7-0.7,1.7-1.7v-5.7  c0-0.6,0.4-1,1-1h2.4c0.8,0,1.3-0.4,1.6-1.2c0,0,0,0,0,0V18l-21,0v15.2c0,0.2,0,0.4,0.1,0.6l0.2,0.6c0.4,0.8,1.2,1.3,2.2,1.3h2  c0.6,0,1,0.4,1,1v5.7c0,0.9,0.8,1.7,1.7,1.7c0.9,0,1.7-0.7,1.7-1.7v-5.7C19.3,36.2,19.8,35.7,20.3,35.7z M38.2,34  c-1.9,0-3.2-1.5-3.2-3.8V19c0-2.4,1.3-4,3.2-4c2.1,0,3.8,1.7,3.8,3.8v11.5C42,32.3,40.2,34,38.2,34z M38.2,17.1  c-1.1,0-1.2,1.6-1.2,1.9v11.3c0,1.1,0.4,1.7,1.2,1.7c1,0,1.8-0.8,1.8-1.7V18.8C40,17.9,39.1,17.1,38.2,17.1z M3.7,34  C1.6,34,0,32.3,0,30V19.1C0,16.8,1.6,15,3.8,15c1,0,3.2,0.4,3.2,4v11.3C7,33.7,4.7,34,3.7,34z M3.8,17.1c-1.2,0-1.8,1-1.8,2V30  c0,1,0.5,2,1.7,2C4.4,32,5,31.8,5,30.3V19C5,17.1,4.2,17.1,3.8,17.1z M32.5,15h-23c-0.3,0-0.6-0.1-0.7-0.3c-0.2-0.2-0.3-0.5-0.3-0.8  c0.4-3.5,2.2-6.6,5.4-8.8l-1.8-2.9c-0.1-0.2-0.2-0.5-0.1-0.8s0.2-0.5,0.4-0.6l1.1-0.7c0.5-0.3,1-0.2,1.3,0.3L17,3.5  c2.8-1,6.1-1,8.8,0l1.8-2.9c0.3-0.4,0.8-0.6,1.2-0.4l1.2,0.5c0.3,0.1,0.5,0.3,0.6,0.6c0.1,0.3,0.1,0.6-0.1,0.8l-1.7,3  c2.7,2.1,4.3,5.1,4.6,8.7c0,0.3-0.1,0.6-0.3,0.8C33,14.9,32.8,15,32.5,15z M10.7,13h20.7c-0.5-2.8-2-5-4.4-6.6  c-0.2-0.2-0.4-0.4-0.4-0.7c-0.2,0.1-0.5,0.1-0.8,0c-2.7-1.2-6-1.2-8.8,0c-0.3,0.1-0.5,0.1-0.8,0c0,0,0,0,0,0  c-0.1,0.3-0.2,0.5-0.5,0.6C13.8,7.5,11.4,9.6,10.7,13z M16.5,11.8c-1,0-1.8-0.8-1.8-1.7c0-1,0.8-1.7,1.8-1.7c1,0,1.8,0.8,1.8,1.7  C18.3,11.1,17.5,11.8,16.5,11.8z M16.5,9.8c-0.1,0-0.2,0.1-0.2,0.3c0,0.1,0.1,0.3,0.2,0.3c0.1,0,0.2-0.1,0.2-0.3  C16.8,9.9,16.6,9.8,16.5,9.8z M26.3,11.8c-0.9,0-1.7-0.8-1.7-1.7s0.8-1.7,1.7-1.7c0.9,0,1.7,0.8,1.7,1.7S27.2,11.8,26.3,11.8z   M26.3,9.8c-0.2,0-0.3,0.1-0.3,0.3c0,0.2,0.1,0.3,0.3,0.3s0.3-0.1,0.3-0.3C26.6,9.9,26.5,9.8,26.3,9.8z"/></svg>